<svg width="24" height="22" viewBox="0 0 24 22" fill="none" xmlns="http://www.w3.org/2000/svg">
<path d="M22.5 9.00188H4.71L10.155 2.46188C10.4096 2.15555 10.5321 1.76063 10.4955 1.36399C10.459 0.967353 10.2663 0.601486 9.96 0.346878C9.65368 0.0922705 9.25875 -0.0302223 8.86211 0.00634725C8.46548 0.0429168 8.09961 0.235554 7.845 0.541879L0.345 9.54188C0.294541 9.61346 0.249419 9.68867 0.21 9.76688C0.21 9.84188 0.21 9.88688 0.105 9.96188C0.0370105 10.1339 0.00141168 10.3169 0 10.5019C0.00141168 10.6868 0.0370105 10.8699 0.105 11.0419C0.105 11.1169 0.105 11.1619 0.21 11.2369C0.249419 11.3151 0.294541 11.3903 0.345 11.4619L7.845 20.4619C7.98603 20.6312 8.16264 20.7674 8.36227 20.8607C8.5619 20.954 8.77963 21.0022 9 21.0019C9.35048 21.0026 9.69013 20.8805 9.96 20.6569C10.1119 20.531 10.2374 20.3763 10.3295 20.2018C10.4215 20.0273 10.4782 19.8363 10.4963 19.6398C10.5144 19.4434 10.4936 19.2453 10.435 19.0569C10.3765 18.8685 10.2813 18.6935 10.155 18.5419L4.71 12.0019H22.5C22.8978 12.0019 23.2794 11.8438 23.5607 11.5625C23.842 11.2812 24 10.8997 24 10.5019C24 10.1041 23.842 9.72252 23.5607 9.44122C23.2794 9.15991 22.8978 9.00188 22.5 9.00188Z" fill="#837670"/>
</svg>
