<svg width="16" height="11" viewBox="0 0 16 11" fill="none" xmlns="http://www.w3.org/2000/svg">
<path d="M8.335 0.125732C4.86208 0.125732 1.89621 2.28589 0.69458 5.33511C1.89621 8.38433 4.86208 10.5445 8.335 10.5445C11.8079 10.5445 14.7738 8.38433 15.9754 5.33511C14.7738 2.28589 11.8079 0.125732 8.335 0.125732ZM8.335 8.80802C6.41795 8.80802 4.86208 7.25216 4.86208 5.33511C4.86208 3.41806 6.41795 1.86219 8.335 1.86219C10.252 1.86219 11.8079 3.41806 11.8079 5.33511C11.8079 7.25216 10.252 8.80802 8.335 8.80802ZM8.335 3.25136C7.18199 3.25136 6.25125 4.1821 6.25125 5.33511C6.25125 6.48812 7.18199 7.41886 8.335 7.41886C9.48801 7.41886 10.4187 6.48812 10.4187 5.33511C10.4187 4.1821 9.48801 3.25136 8.335 3.25136Z" fill="#837670"/>
</svg>
