<svg width="38" height="34" viewBox="0 0 38 34" fill="none" xmlns="http://www.w3.org/2000/svg">
<rect width="38" height="34" rx="5" fill="#ECA77B" fill-opacity="0.25"/>
<path d="M19.2084 10.2761L27.9487 16.5293C28.0266 16.5852 28.0902 16.6588 28.134 16.744C28.1779 16.8293 28.2008 16.9238 28.2009 17.0197V17.0211C28.2007 17.1173 28.1776 17.2122 28.1334 17.2976C28.0892 17.3831 28.0252 17.4568 27.9468 17.5126L19.2064 23.7255C19.1161 23.7897 19.0098 23.8278 18.8992 23.8356C18.7886 23.8433 18.678 23.8204 18.5796 23.7694C18.481 23.7187 18.3983 23.6418 18.3407 23.5471C18.283 23.4524 18.2527 23.3436 18.2529 23.2328V20.3089L10.4028 20.3091C10.3235 20.3091 10.2449 20.2935 10.1717 20.2632C10.0984 20.2329 10.0319 20.1884 9.9758 20.1323C9.91974 20.0762 9.87529 20.0096 9.84498 19.9364C9.81467 19.8631 9.79911 19.7846 9.79917 19.7053L9.79941 14.2954C9.79938 14.2161 9.81498 14.1376 9.84531 14.0643C9.87564 13.991 9.92012 13.9245 9.9762 13.8684C10.0323 13.8123 10.0989 13.7678 10.1721 13.7375C10.2454 13.7072 10.3239 13.6916 10.4032 13.6916H18.2527V10.7669C18.2527 10.5413 18.3799 10.3342 18.5808 10.2301C18.6795 10.1792 18.7903 10.1565 18.9011 10.1646C19.0118 10.1728 19.1182 10.2114 19.2084 10.2761Z" fill="url(#paint0_linear_459_9284)"/>
<defs>
<linearGradient id="paint0_linear_459_9284" x1="23.5207" y1="12.2971" x2="17.3176" y2="23.9095" gradientUnits="userSpaceOnUse">
<stop stop-color="#FF934D"/>
<stop offset="1" stop-color="#FF6A00"/>
</linearGradient>
</defs>
</svg>
