<svg width="43" height="43" viewBox="0 0 43 43" fill="none" xmlns="http://www.w3.org/2000/svg">
<g filter="url(#filter0_d_290_865)">
<circle cx="21.5" cy="17.5" r="17.5" fill="white"/>
</g>
<path d="M13.94 24H30.06C30.5791 24 31 23.5791 31 23.06V22.94C31 22.4209 30.5791 22 30.06 22H13.94C13.4209 22 13 22.4209 13 22.94V23.06C13 23.5791 13.4209 24 13.94 24Z" fill="#4B2929"/>
<path d="M13.94 14H30.06C30.5791 14 31 13.5791 31 13.06V12.94C31 12.4209 30.5791 12 30.06 12H13.94C13.4209 12 13 12.4209 13 12.94V13.06C13 13.5791 13.4209 14 13.94 14Z" fill="#4B2929"/>
<path d="M13.94 19H26.06C26.5791 19 27 18.5791 27 18.06V17.94C27 17.4209 26.5791 17 26.06 17H13.94C13.4209 17 13 17.4209 13 17.94V18.06C13 18.5791 13.4209 19 13.94 19Z" fill="#4B2929"/>
<path d="M30 17C29.4477 17 29 17.4477 29 18C29 18.5523 29.4477 19 30 19C30.5523 19 31 18.5523 31 18C31 17.4477 30.5523 17 30 17Z" fill="#4B2929"/>
<defs>
<filter id="filter0_d_290_865" x="0" y="0" width="43" height="43" filterUnits="userSpaceOnUse" color-interpolation-filters="sRGB">
<feFlood flood-opacity="0" result="BackgroundImageFix"/>
<feColorMatrix in="SourceAlpha" type="matrix" values="0 0 0 0 0 0 0 0 0 0 0 0 0 0 0 0 0 0 127 0" result="hardAlpha"/>
<feOffset dy="4"/>
<feGaussianBlur stdDeviation="2"/>
<feComposite in2="hardAlpha" operator="out"/>
<feColorMatrix type="matrix" values="0 0 0 0 0 0 0 0 0 0 0 0 0 0 0 0 0 0 0.25 0"/>
<feBlend mode="normal" in2="BackgroundImageFix" result="effect1_dropShadow_290_865"/>
<feBlend mode="normal" in="SourceGraphic" in2="effect1_dropShadow_290_865" result="shape"/>
</filter>
</defs>
</svg>
