<svg width="24" height="24" viewBox="0 0 24 24" fill="none" xmlns="http://www.w3.org/2000/svg">
<path d="M7.58 4.08L6.15 2.65C3.75 4.48 2.17 7.3 2.03 10.5H4.03C4.10084 9.23181 4.45683 7.99593 5.07147 6.88439C5.68611 5.77284 6.54357 4.81425 7.58 4.08ZM19.97 10.5H21.97C21.82 7.3 20.24 4.48 17.85 2.65L16.43 4.08C17.462 4.81787 18.3156 5.77751 18.9282 6.88846C19.5408 7.99942 19.8968 9.23347 19.97 10.5ZM18 11C18 7.93 16.36 5.36 13.5 4.68V4C13.5 3.17 12.83 2.5 12 2.5C11.17 2.5 10.5 3.17 10.5 4V4.68C7.63 5.36 6 7.92 6 11V16L4 18V19H20V18L18 16V11ZM12 22C12.14 22 12.27 21.99 12.4 21.96C13.05 21.82 13.58 21.38 13.84 20.78C13.94 20.54 13.99 20.28 13.99 20H9.99C10 21.1 10.89 22 12 22Z" fill="url(#paint0_linear_416_1650)"/>
<defs>
<linearGradient id="paint0_linear_416_1650" x1="7.10144" y1="5.54335" x2="17.1159" y2="19.7884" gradientUnits="userSpaceOnUse">
<stop stop-color="#FF934D"/>
<stop offset="1" stop-color="#FF6A00"/>
</linearGradient>
</defs>
</svg>
