<svg width="20" height="24" viewBox="0 0 20 24" fill="none" xmlns="http://www.w3.org/2000/svg">
<path d="M8.05815 15.2314L10 13.775L11.8812 15.2314C12.1037 15.3932 12.3363 15.3984 12.579 15.2471C12.8217 15.095 12.8925 14.8774 12.7914 14.5942L12.0632 12.1972L14.0354 10.6498C14.2579 10.4678 14.3238 10.2351 14.2332 9.95196C14.1418 9.66878 13.9444 9.52718 13.641 9.52718H11.335L10.5461 7.13021C10.445 6.84703 10.263 6.70544 10 6.70544C9.73704 6.70544 9.55499 6.84703 9.45386 7.13021L8.66498 9.52718H6.35904C6.05563 9.52718 5.85335 9.66878 5.75221 9.95196C5.65108 10.2351 5.72187 10.4678 5.9646 10.6498L7.87611 12.1972L7.14791 14.5942C7.04678 14.8774 7.11757 15.095 7.3603 15.2471C7.60303 15.3984 7.83565 15.3932 8.05815 15.2314ZM10 24H9.69659C9.59545 24 9.50443 23.9798 9.42352 23.9393C6.7737 23.11 4.58913 21.4663 2.86979 19.0082C1.15044 16.551 0.290771 13.8357 0.290771 10.8622V5.12769C0.290771 4.622 0.437623 4.16688 0.731328 3.76233C1.02422 3.35777 1.40329 3.06448 1.86852 2.88243L9.15044 0.151707C9.43363 0.0505689 9.71681 0 10 0C10.2832 0 10.5664 0.0505689 10.8496 0.151707L18.1315 2.88243C18.5967 3.06448 18.9762 3.35777 19.2699 3.76233C19.5628 4.16688 19.7092 4.622 19.7092 5.12769V10.8622C19.7092 13.8357 18.8496 16.551 17.1302 19.0082C15.4109 21.4663 13.2263 23.11 10.5765 23.9393C10.4753 23.9798 10.2832 24 10 24Z" fill="url(#paint0_linear_254_8)"/>
<defs>
<linearGradient id="paint0_linear_254_8" x1="5.22957" y1="3.74567" x2="18.2372" y2="18.3859" gradientUnits="userSpaceOnUse">
<stop stop-color="#F2C8AD"/>
<stop offset="1" stop-color="#7E5D5D"/>
</linearGradient>
</defs>
</svg>
