<svg width="34" height="30" viewBox="0 0 34 30" fill="none" xmlns="http://www.w3.org/2000/svg">
<rect width="34" height="30" rx="5" fill="#ECA77B" fill-opacity="0.25"/>
<path d="M17 11.5V7H12.5C12.1022 7 11.7206 7.15804 11.4393 7.43934C11.158 7.72064 11 8.10218 11 8.5V21.5C11 21.8978 11.158 22.2794 11.4393 22.5607C11.7206 22.842 12.1022 23 12.5 23H21.5C21.8978 23 22.2794 22.842 22.5607 22.5607C22.842 22.2794 23 21.8978 23 21.5V13H18.5C18.1022 13 17.7206 12.842 17.4393 12.5607C17.158 12.2794 17 11.8978 17 11.5ZM13 15.5C13 15.3674 13.0527 15.2402 13.1464 15.1464C13.2402 15.0527 13.3674 15 13.5 15C13.6326 15 13.7598 15.0527 13.8536 15.1464C13.9473 15.2402 14 15.3674 14 15.5C14 15.6326 13.9473 15.7598 13.8536 15.8536C13.7598 15.9473 13.6326 16 13.5 16C13.3674 16 13.2402 15.9473 13.1464 15.8536C13.0527 15.7598 13 15.6326 13 15.5ZM13 17.5C13 17.3674 13.0527 17.2402 13.1464 17.1464C13.2402 17.0527 13.3674 17 13.5 17C13.6326 17 13.7598 17.0527 13.8536 17.1464C13.9473 17.2402 14 17.3674 14 17.5C14 17.6326 13.9473 17.7598 13.8536 17.8536C13.7598 17.9473 13.6326 18 13.5 18C13.3674 18 13.2402 17.9473 13.1464 17.8536C13.0527 17.7598 13 17.6326 13 17.5ZM13 19.5C13 19.3674 13.0527 19.2402 13.1464 19.1464C13.2402 19.0527 13.3674 19 13.5 19C13.6326 19 13.7598 19.0527 13.8536 19.1464C13.9473 19.2402 14 19.3674 14 19.5C14 19.6326 13.9473 19.7598 13.8536 19.8536C13.7598 19.9473 13.6326 20 13.5 20C13.3674 20 13.2402 19.9473 13.1464 19.8536C13.0527 19.7598 13 19.6326 13 19.5ZM15 15.5C15 15.3674 15.0527 15.2402 15.1464 15.1464C15.2402 15.0527 15.3674 15 15.5 15H20.5C20.6326 15 20.7598 15.0527 20.8536 15.1464C20.9473 15.2402 21 15.3674 21 15.5C21 15.6326 20.9473 15.7598 20.8536 15.8536C20.7598 15.9473 20.6326 16 20.5 16H15.5C15.3674 16 15.2402 15.9473 15.1464 15.8536C15.0527 15.7598 15 15.6326 15 15.5ZM15 17.5C15 17.3674 15.0527 17.2402 15.1464 17.1464C15.2402 17.0527 15.3674 17 15.5 17H20.5C20.6326 17 20.7598 17.0527 20.8536 17.1464C20.9473 17.2402 21 17.3674 21 17.5C21 17.6326 20.9473 17.7598 20.8536 17.8536C20.7598 17.9473 20.6326 18 20.5 18H15.5C15.3674 18 15.2402 17.9473 15.1464 17.8536C15.0527 17.7598 15 17.6326 15 17.5ZM15 19.5C15 19.3674 15.0527 19.2402 15.1464 19.1464C15.2402 19.0527 15.3674 19 15.5 19H20.5C20.6326 19 20.7598 19.0527 20.8536 19.1464C20.9473 19.2402 21 19.3674 21 19.5C21 19.6326 20.9473 19.7598 20.8536 19.8536C20.7598 19.9473 20.6326 20 20.5 20H15.5C15.3674 20 15.2402 19.9473 15.1464 19.8536C15.0527 19.7598 15 19.6326 15 19.5ZM18 11.5V7.25L22.75 12H18.5C18.3674 12 18.2402 11.9473 18.1464 11.8536C18.0527 11.7598 18 11.6326 18 11.5Z" fill="url(#paint0_linear_459_9283)"/>
<defs>
<linearGradient id="paint0_linear_459_9283" x1="14.052" y1="9.49711" x2="22.7766" y2="18.5995" gradientUnits="userSpaceOnUse">
<stop stop-color="#FF934D"/>
<stop offset="1" stop-color="#FF6A00"/>
</linearGradient>
</defs>
</svg>
