<svg width="26" height="22" viewBox="0 0 26 22" fill="none" xmlns="http://www.w3.org/2000/svg">
<path d="M1 2.08851V8.63396H7.54545" stroke="#F87619" stroke-width="2" stroke-linecap="round" stroke-linejoin="round"/>
<path d="M25 19.5431V12.9976H18.4546" stroke="#F87619" stroke-width="2" stroke-linecap="round" stroke-linejoin="round"/>
<path d="M21.3191 7.87666C21.5033 8.3973 22.0748 8.67002 22.5954 8.48578C23.1161 8.30154 23.3888 7.73011 23.2045 7.20946L21.3191 7.87666ZM6.06182 3.8776L6.74659 4.60636C6.75421 4.5992 6.76171 4.59193 6.7691 4.58453L6.06182 3.8776ZM0.315223 7.90522C-0.0872558 8.28341 -0.106945 8.91627 0.271247 9.31875C0.649439 9.72122 1.2823 9.74091 1.68478 9.36272L0.315223 7.90522ZM25.6848 13.7264C26.0873 13.3482 26.107 12.7153 25.7288 12.3128C25.3506 11.9103 24.7177 11.8907 24.3152 12.2689L25.6848 13.7264ZM19.9382 17.754L19.2534 17.0252C19.2458 17.0324 19.2383 17.0396 19.2309 17.047L19.9382 17.754ZM4.68091 13.7549C4.49667 13.2343 3.92524 12.9616 3.4046 13.1458C2.88395 13.33 2.61124 13.9015 2.79548 14.4221L4.68091 13.7549ZM23.2045 7.20946C21.9654 3.70775 19.0164 1.08663 15.3935 0.266905L14.9521 2.2176C17.9052 2.88578 20.309 5.02232 21.3191 7.87666L23.2045 7.20946ZM15.3935 0.266905C11.7706 -0.552825 7.98042 0.543475 5.35453 3.17068L6.7691 4.58453C8.90953 2.44304 11.999 1.54941 14.9521 2.2176L15.3935 0.266905ZM5.37704 3.14885L0.315223 7.90522L1.68478 9.36272L6.74659 4.60636L5.37704 3.14885ZM24.3152 12.2689L19.2534 17.0252L20.623 18.4827L25.6848 13.7264L24.3152 12.2689ZM19.2309 17.047C17.0905 19.1885 14.001 20.0822 11.0479 19.414L10.6065 21.3647C14.2295 22.1844 18.0196 21.0881 20.6455 18.4609L19.2309 17.047ZM11.0479 19.414C8.09479 18.7458 5.69096 16.6093 4.68091 13.7549L2.79548 14.4221C4.03462 17.9238 6.98364 20.5449 10.6065 21.3647L11.0479 19.414Z" fill="#F87619"/>
</svg>
