<svg width="25" height="24" viewBox="0 0 25 24" fill="none" xmlns="http://www.w3.org/2000/svg">
<path fill-rule="evenodd" clip-rule="evenodd" d="M8.92882 0.9396C8.98806 0.673124 9.13638 0.434809 9.3493 0.263987C9.56223 0.0931655 9.82704 4.68453e-05 10.1 0H14.9C15.173 4.68453e-05 15.4378 0.0931655 15.6507 0.263987C15.8637 0.434809 16.012 0.673124 16.0712 0.9396L16.5992 3.3168C17.0792 3.5448 17.5364 3.8088 17.9672 4.1088L20.2928 3.3768C20.5532 3.29492 20.8338 3.30427 21.0882 3.40332C21.3425 3.50237 21.5555 3.68518 21.692 3.9216L24.092 8.0784C24.2286 8.31485 24.2804 8.5908 24.2389 8.86068C24.1975 9.13056 24.0652 9.37823 23.864 9.5628L22.0676 11.2104C22.1104 11.7359 22.1104 12.2641 22.0676 12.7896L23.864 14.4372C24.0652 14.6218 24.1975 14.8694 24.2389 15.1393C24.2804 15.4092 24.2286 15.6852 24.092 15.9216L21.692 20.0784C21.5555 20.3148 21.3425 20.4976 21.0882 20.5967C20.8338 20.6957 20.5532 20.7051 20.2928 20.6232L17.9684 19.8912C17.5364 20.1912 17.0792 20.4552 16.6004 20.6832L16.0724 23.0592C16.0134 23.3261 15.865 23.5648 15.6518 23.7359C15.4386 23.907 15.1734 24.0002 14.9 24H10.1C9.82704 24 9.56223 23.9068 9.3493 23.736C9.13638 23.5652 8.98806 23.3269 8.92882 23.0604L8.40082 20.6832C7.92082 20.4552 7.46362 20.1912 7.03282 19.8912L4.70722 20.6232C4.44681 20.7051 4.16626 20.6957 3.91188 20.5967C3.6575 20.4976 3.4445 20.3148 3.30802 20.0784L0.908019 15.9216C0.771475 15.6852 0.719651 15.4092 0.761104 15.1393C0.802557 14.8694 0.934807 14.6218 1.13602 14.4372L2.93242 12.7896C2.88957 12.2641 2.88957 11.7359 2.93242 11.2104L1.13602 9.564C0.934807 9.37943 0.802557 9.13175 0.761104 8.86188C0.719651 8.592 0.771475 8.31605 0.908019 8.0796L3.30802 3.9228C3.4445 3.68638 3.6575 3.50357 3.91188 3.40452C4.16626 3.30547 4.44681 3.29612 4.70722 3.378L7.03162 4.11C7.46362 3.81 7.92082 3.546 8.39962 3.318L8.92762 0.942L8.92882 0.9396ZM12.5 15.6C13.4548 15.6 14.3705 15.2207 15.0456 14.5456C15.7207 13.8705 16.1 12.9548 16.1 12C16.1 11.0452 15.7207 10.1295 15.0456 9.45442C14.3705 8.77928 13.4548 8.4 12.5 8.4C11.5452 8.4 10.6296 8.77928 9.95443 9.45442C9.2793 10.1295 8.90002 11.0452 8.90002 12C8.90002 12.9548 9.2793 13.8705 9.95443 14.5456C10.6296 15.2207 11.5452 15.6 12.5 15.6Z" fill="url(#paint0_linear_254_11)"/>
<defs>
<linearGradient id="paint0_linear_254_11" x1="6.72551" y1="3.74567" x2="19.2219" y2="20.7708" gradientUnits="userSpaceOnUse">
<stop stop-color="#F2C8AD"/>
<stop offset="1" stop-color="#7E5D5D"/>
</linearGradient>
</defs>
</svg>
