<svg width="25" height="24" viewBox="0 0 25 24" fill="none" xmlns="http://www.w3.org/2000/svg">
<path fill-rule="evenodd" clip-rule="evenodd" d="M8.9288 0.9396C8.98804 0.673124 9.13636 0.434809 9.34929 0.263987C9.56222 0.0931655 9.82702 4.68453e-05 10.1 0H14.9C15.173 4.68453e-05 15.4378 0.0931655 15.6507 0.263987C15.8636 0.434809 16.012 0.673124 16.0712 0.9396L16.5992 3.3168C17.0792 3.5448 17.5364 3.8088 17.9672 4.1088L20.2928 3.3768C20.5532 3.29492 20.8338 3.30427 21.0881 3.40332C21.3425 3.50237 21.5555 3.68518 21.692 3.9216L24.092 8.0784C24.2285 8.31485 24.2804 8.5908 24.2389 8.86068C24.1975 9.13056 24.0652 9.37823 23.864 9.5628L22.0676 11.2104C22.1104 11.7359 22.1104 12.2641 22.0676 12.7896L23.864 14.4372C24.0652 14.6218 24.1975 14.8694 24.2389 15.1393C24.2804 15.4092 24.2285 15.6852 24.092 15.9216L21.692 20.0784C21.5555 20.3148 21.3425 20.4976 21.0881 20.5967C20.8338 20.6957 20.5532 20.7051 20.2928 20.6232L17.9684 19.8912C17.5364 20.1912 17.0792 20.4552 16.6004 20.6832L16.0724 23.0592C16.0134 23.3261 15.865 23.5648 15.6518 23.7359C15.4386 23.907 15.1734 24.0002 14.9 24H10.1C9.82702 24 9.56222 23.9068 9.34929 23.736C9.13636 23.5652 8.98804 23.3269 8.9288 23.0604L8.4008 20.6832C7.9208 20.4552 7.4636 20.1912 7.0328 19.8912L4.7072 20.6232C4.44679 20.7051 4.16625 20.6957 3.91187 20.5967C3.65749 20.4976 3.44448 20.3148 3.308 20.0784L0.908004 15.9216C0.77146 15.6852 0.719636 15.4092 0.761089 15.1393C0.802542 14.8694 0.934792 14.6218 1.136 14.4372L2.9324 12.7896C2.88956 12.2641 2.88956 11.7359 2.9324 11.2104L1.136 9.564C0.934792 9.37943 0.802542 9.13175 0.761089 8.86188C0.719636 8.592 0.77146 8.31605 0.908004 8.0796L3.308 3.9228C3.44448 3.68638 3.65749 3.50357 3.91187 3.40452C4.16625 3.30547 4.44679 3.29612 4.7072 3.378L7.0316 4.11C7.4636 3.81 7.9208 3.546 8.3996 3.318L8.9276 0.942L8.9288 0.9396ZM12.5 15.6C13.4548 15.6 14.3705 15.2207 15.0456 14.5456C15.7207 13.8705 16.1 12.9548 16.1 12C16.1 11.0452 15.7207 10.1295 15.0456 9.45442C14.3705 8.77928 13.4548 8.4 12.5 8.4C11.5452 8.4 10.6295 8.77928 9.95442 9.45442C9.27929 10.1295 8.9 11.0452 8.9 12C8.9 12.9548 9.27929 13.8705 9.95442 14.5456C10.6295 15.2207 11.5452 15.6 12.5 15.6Z" fill="url(#paint0_linear_663_79)"/>
<defs>
<linearGradient id="paint0_linear_663_79" x1="6.72549" y1="3.74567" x2="19.2218" y2="20.7708" gradientUnits="userSpaceOnUse">
<stop stop-color="#FC9B5C"/>
<stop offset="1" stop-color="#FF1818"/>
</linearGradient>
</defs>
</svg>
