<svg width="22" height="10" viewBox="0 0 22 10" fill="none" xmlns="http://www.w3.org/2000/svg">
<path d="M9.5 10C8.95 10 8.47933 9.80433 8.088 9.413C7.696 9.021 7.5 8.55 7.5 8V2C7.5 1.45 7.696 0.979 8.088 0.587C8.47933 0.195667 8.95 0 9.5 0H12.5C13.05 0 13.521 0.195667 13.913 0.587C14.3043 0.979 14.5 1.45 14.5 2V8C14.5 8.55 14.3043 9.021 13.913 9.413C13.521 9.80433 13.05 10 12.5 10H9.5ZM0 10V8H4V6H2C1.45 6 0.979333 5.804 0.588 5.412C0.196 5.02067 0 4.55 0 4V2C0 1.45 0.196 0.979 0.588 0.587C0.979333 0.195667 1.45 0 2 0H6V2H2V4H4C4.55 4 5.02067 4.19567 5.412 4.587C5.804 4.979 6 5.45 6 6V8C6 8.55 5.804 9.021 5.412 9.413C5.02067 9.80433 4.55 10 4 10H0ZM16 10V8H20V6H18C17.45 6 16.979 5.804 16.587 5.412C16.1957 5.02067 16 4.55 16 4V2C16 1.45 16.1957 0.979 16.587 0.587C16.979 0.195667 17.45 0 18 0H22V2H18V4H20C20.55 4 21.021 4.19567 21.413 4.587C21.8043 4.979 22 5.45 22 6V8C22 8.55 21.8043 9.021 21.413 9.413C21.021 9.80433 20.55 10 20 10H16ZM9.5 8H12.5V2H9.5V8Z" fill="url(#paint0_linear_451_9288)"/>
<defs>
<linearGradient id="paint0_linear_451_9288" x1="5.59538" y1="1.56069" x2="8.81807" y2="11.4232" gradientUnits="userSpaceOnUse">
<stop stop-color="#FF934D"/>
<stop offset="1" stop-color="#FF6A00"/>
</linearGradient>
</defs>
</svg>
